<?xml version="1.0" encoding="utf-8"?>
<!-- Generator: Adobe Illustrator 24.1.1, SVG Export Plug-In . SVG Version: 6.00 Build 0)  -->
<svg version="1.1" id="Capa_1" xmlns="http://www.w3.org/2000/svg" xmlns:xlink="http://www.w3.org/1999/xlink" x="0px" y="0px"
	 viewBox="0 0 550.8 550.8" style="enable-background:new 0 0 550.8 550.8;" xml:space="preserve">
<g>
	<g>
		<path d="M387.1,415.4c-7.2,0-11.2,0.6-13.3,1v36h11.6c14.7,0,23.4-7.4,23.4-18.8C408.7,421.6,400.6,415.6,387.1,415.4z"/>
		<path d="M152.7,191.2l153.9,29.4c1.8,0.3,3.9,0,4.7-0.7l58.6-53.7c0,0,3.8-2.3-1.6-3.3s-152.7-29.4-152.7-29.4
			c-1.8-0.3-3.9,0-4.7,0.7l-60.1,55C150.1,189.9,150.9,190.8,152.7,191.2z M220.6,141.8l133.4,25.5l-39.4,36l-9.7-1.9
			c0.9-7.1,3.1-16.8-8.8-17.8c-13.9-1.1-33.2,9.7-33.2,9.7s8.4-14.7-1.2-25.4c-9.6-10.6-57.3,14.2-57.3,14.2l-23.3-4.4L220.6,141.8z
			"/>
		<path d="M475.1,132c0-2.5-0.8-5-2.6-7L366.3,3.7c0,0-0.1,0-0.1-0.1c-0.6-0.7-1.4-1.3-2.2-1.8c-0.2-0.1-0.5-0.3-0.7-0.4
			c-0.7-0.4-1.4-0.7-2.1-0.9c-0.2-0.1-0.4-0.1-0.6-0.2C359.9,0.1,359,0,358.2,0h-261C85.3,0,75.6,9.7,75.6,21.6v507.6
			c0,11.9,9.7,21.6,21.6,21.6h356.4c11.9,0,21.6-9.7,21.6-21.6v-396C475.2,132.8,475.1,132.4,475.1,132z M208.5,418.6h-35.8v106.1
			H143V418.6h-35.2v-24.9h100.7L208.5,418.6L208.5,418.6z M298.2,524.7L286.3,501c-4.9-9.1-8-15.9-11.7-23.5h-0.4
			c-2.7,7.6-6,14.4-10.1,23.5l-10.9,23.7h-33.8l37.9-66.3l-36.5-64.7h34l11.5,23.9c3.9,8,6.8,14.4,9.9,21.8h0.4
			c3.1-8.4,5.6-14.2,8.9-21.8l11.1-23.9h33.8l-36.9,63.9l38.9,67.1L298.2,524.7L298.2,524.7z M412.8,524.9
			c-2.1-3.7-5.2-14.3-9.1-30.4c-3.5-16.2-9.1-20.7-21.1-20.9h-8.9v51.3h-29.2V396.2c9.5-1.5,23.6-2.7,39.3-2.7
			c19.4,0,32.9,2.9,42.2,10.3c7.7,6.2,12,15.3,12,27.3c0,16.6-11.8,28.1-23,32.1v0.6c9.1,3.7,14.1,12.4,17.4,24.4
			c4.1,14.7,8.1,31.7,10.6,36.8H412.8z M97.2,366.7V21.6h250.2v110.5c0,6,4.8,10.8,10.8,10.8h95.4v223.8L97.2,366.7L97.2,366.7z
			 M303.3,170.8c2.5,0.5,4.9,0.8,7.1,1c1.9,0.9,4.5,1.7,7.6,2.3c8,1.5,16.3,1.2,18.5-0.8c2.2-2-2.6-4.9-10.6-6.4
			c-3-0.6-6.1-0.9-8.8-0.9c-0.5-0.6-1.5-1-3-1.3l-2.1-0.4c-2.7-0.5-5.7-0.1-7.2,0.9c-6.8-1-12.7-0.9-14,0.2
			C289.4,166.8,294.9,169.2,303.3,170.8z M311.3,266.2l58.6-53.7c0,0,3.8-2.3-1.6-3.3c-1.3-0.2-10.7-2.1-24.2-4.6l-26.8,24.5
			c-3,2.8-7.1,3.2-9.2,3.2c-1.1,0-2.1-0.1-3.2-0.3l-124.2-23.8l-29.8,27.3c-0.8,0.7,0,1.6,1.8,2L306.6,267
			C308.4,267.3,310.5,267,311.3,266.2z M372.8,256.3c-1.3-0.2-10.7-2.1-24.2-4.6l-26.8,24.5c-3,2.8-7.1,3.2-9.2,3.2
			c-1.1,0-2.1-0.1-3.2-0.3l-124.2-23.8l-29.8,27.3c-0.8,0.7,0,1.6,1.8,2L311.1,314c1.8,0.3,3.9,0,4.7-0.7l58.6-53.7
			C374.4,259.6,378.2,257.3,372.8,256.3z"/>
	</g>
</g>
</svg>
