<?xml version="1.0" encoding="utf-8"?>
<!-- Generator: Adobe Illustrator 24.1.1, SVG Export Plug-In . SVG Version: 6.00 Build 0)  -->
<svg version="1.1" id="Capa_1" xmlns="http://www.w3.org/2000/svg" xmlns:xlink="http://www.w3.org/1999/xlink" x="0px" y="0px"
	 viewBox="0 0 550.8 550.8" style="enable-background:new 0 0 550.8 550.8;" xml:space="preserve">
<g>
	<g>
		<path d="M475.1,132c0-2.5-0.8-5-2.6-7L366.3,3.7c0,0-0.1,0-0.1-0.1c-0.6-0.7-1.4-1.3-2.1-1.8c-0.2-0.2-0.5-0.3-0.7-0.4
			c-0.7-0.4-1.4-0.7-2.1-0.9c-0.2-0.1-0.4-0.1-0.6-0.2C359.9,0.1,359,0,358.2,0h-261C85.3,0,75.6,9.7,75.6,21.6v507.6
			c0,11.9,9.7,21.6,21.6,21.6h356.4c11.9,0,21.6-9.7,21.6-21.6v-396C475.2,132.8,475.1,132.4,475.1,132z M146.7,516.7
			c-14,0-27.8-3.6-34.6-7.4l5.6-22.9c7.4,3.8,18.9,7.6,30.6,7.6c12.7,0,19.4-5.3,19.4-13.2c0-7.6-5.8-12-20.5-17.2
			c-20.3-7.1-33.6-18.3-33.6-36.1c0-20.9,17.4-36.8,46.2-36.8c13.8,0,23.9,2.9,31.2,6.2l-6.2,22.3c-4.9-2.4-13.6-5.8-25.6-5.8
			s-17.8,5.4-17.8,11.8c0,7.8,6.9,11.2,22.7,17.2c21.6,8,31.7,19.2,31.7,36.5C196,499.3,180.3,516.7,146.7,516.7z M438.7,416.5
			h-35.6v105.6h-29.6V416.5h-35v-24.8h100.2V416.5L438.7,416.5z M306.9,462.4c-10.1,9.5-25,13.7-42.4,13.7c-3.9,0-7.3-0.2-10.1-0.6
			v46.6h-29.2V393.5c9.1-1.5,21.9-2.7,39.9-2.7c18.2,0,31.2,3.5,39.9,10.4c8.3,6.6,13.9,17.4,13.9,30.2S314.7,455,306.9,462.4z
			 M97.2,366.7V21.6h250.2v110.5c0,6,4.8,10.8,10.8,10.8h95.4v223.8H97.2L97.2,366.7z"/>
		<path d="M266.7,413.1c-6,0-10.1,0.6-12.2,1.2v38.5c2.5,0.6,5.6,0.8,9.9,0.8c15.7,0,25.3-7.9,25.3-21.3
			C289.7,420.2,281.4,413.1,266.7,413.1z"/>
	</g>
	<g>
		<path d="M337.1,264.3v-141c0-1.9-1.5-3.4-3.4-3.4H170.8c-1.9,0-3.4,1.5-3.4,3.4v141c0,1.9,1.5,3.4,3.4,3.4h162.9
			C335.6,267.8,337.1,266.2,337.1,264.3z M324.3,228H314c-6-15.4-13.4-37-24.6-34.1c-13.2,3.4-19.8,34.1-19.8,34.1
			s-6.7-34.7-25.3-53.3S207.7,228,207.7,228h-24.6v-92.4h141.2V228L324.3,228L324.3,228z"/>
		<circle cx="205.9" cy="155.4" r="11.5"/>
		<path d="M283.2,163.5c2.6,0,5-0.3,7.2-0.7c2.5,1.1,5.6,1.7,8.9,1.7c8.5,0,15.4-4.2,15.4-9.3s-6.9-9.3-15.4-9.3
			c-3.2,0-6.1,0.6-8.6,1.6c-1-1-2.4-1.6-3.9-1.6h-2.2c-2.8,0-5.1,2.2-5.4,4.9c-6.9,0.7-12,3.2-12,6.2
			C267.1,160.6,274.3,163.5,283.2,163.5z"/>
		<path d="M381.6,187.1l-35.4-7.9v16l22.8,5.1l-20.2,90.2l-10.1-2.3c-0.5-3.1-0.9-6.3-1.5-9.7H190.6l-2.9,13.1
			c-0.4,1.9,0.8,3.7,2.6,4.1l159,35.6c1.9,0.4,3.7-0.8,4.1-2.6l30.8-137.6C384.6,189.4,383.4,187.5,381.6,187.1z"/>
		<path d="M355.2,217.4c0.9-4.2-3-8.7-9.1-11.1v17.2C350.9,222.9,354.5,220.7,355.2,217.4z"/>
	</g>
</g>
</svg>
